# xmcd CD database file
#
# Track frame offsets:
#	150
#	9942
#	19275
#	29502
#	36842
#	48350
#	59097
#	68592
#	80642
#	86490
#	94830
#	102917
#	113517
#	120030
#	125220
#	134125
#	148052
#
# Disc length: 2409 seconds
#
# Revision: 11
# Processed by: cddbd v1.5PL3 Copyright (c) Steve Scherf et al.
# Submitted via: CDex 1.50beta9
#
DISCID=ea096711
DTITLE=NOFX - PUNK IN DRUBLIC
DYEAR=1994
DGENRE=Punk Rock
TTITLE0=Linoleum
TTITLE1=Leave It Alone
TTITLE2=Dig
TTITLE3=The Cause
TTITLE4=Don't Call Me White
TTITLE5=My Heart Is Yearning
TTITLE6=Perfect Government
TTITLE7=The Brews
TTITLE8=The Quass
TTITLE9=Dying Degree
TTITLE10=Fleas
TTITLE11=Lori Meyers
TTITLE12=Jeff Wears Birkenstocks
TTITLE13=Punk Guy
TTITLE14=Happy Guy
TTITLE15=Reeko
TTITLE16=Scavenger Type
EXTD=YEAR: 1994
EXTT0=
EXTT1=
EXTT2=
EXTT3=
EXTT4=
EXTT5=
EXTT6=
EXTT7=
EXTT8=
EXTT9=
EXTT10=
EXTT11=
EXTT12=
EXTT13=
EXTT14=
EXTT15=
EXTT16=
PLAYORDER=
